<svg width="31" height="31" viewBox="0 0 31 31" fill="none" xmlns="http://www.w3.org/2000/svg">
<mask id="mask0_1_159" style="mask-type:alpha" maskUnits="userSpaceOnUse" x="0" y="0" width="31" height="31">
<rect width="31" height="31" fill="#D9D9D9"/>
</mask>
<g mask="url(#mask0_1_159)">
<path d="M24.543 11.8598L22.9284 8.30464L19.3763 6.68868L22.9284 5.07271L24.543 1.51758L26.1576 5.07271L29.7096 6.68868L26.1576 8.30464L24.543 11.8598ZM24.543 29.9586L22.9284 26.4035L19.3763 24.7875L22.9284 23.1716L24.543 19.6164L26.1576 23.1716L29.7096 24.7875L26.1576 26.4035L24.543 29.9586ZM11.6263 26.0803L8.39713 18.97L1.29297 15.7381L8.39713 12.5062L11.6263 5.3959L14.8555 12.5062L21.9596 15.7381L14.8555 18.97L11.6263 26.0803Z" fill="#FFEAEE" fill-opacity="0.5"/>
</g>
</svg>
